# xmcd CD database file
#
# Track frame offsets:
#	150
#	11925
#	24217
#	33916
#	53416
#	65491
#	78991
#	93003
#	102425
#	111965
#	123290
#	132932
#	146239
#	158727
#	171747
#	185210
#	194915
#	207520
#	217489
#	230614
#
# Disc length: 3203 seconds
#
# Revision: 1
# Processed by: cddbd v1.5.2PL0 Copyright (c) Steve Scherf et al.
# Submitted via: CDex 1.50
#
DISCID=300c8114
DTITLE=Various Artist - The World Of Country Giants
DYEAR=1971
DGENRE=Country
TTITLE0=Marty Robbins - Lovesick Blues
TTITLE1=Ray Price - I Can't Help It (If I'm Still In Love With You)
TTITLE2=Johnny Horton - The Golden Rocket
TTITLE3=Tammy Wynette - Ode To Billie Joe
TTITLE4=Tommy Cash - Ring of Fire
TTITLE5=Johnny Cash - Don't Think Twice, It's All Right
TTITLE6=David Houston - Where Love Used To Live
TTITLE7=Carl Smith - Jimmie Brown The Newsboy
TTITLE8=Bob Luman - Brown Eyed Handsome Man
TTITLE9=Stonewall Jackson - Waterloo
TTITLE10=Lynn Anderson - Stay There 'til I Get There
TTITLE11=Freddy Weller - Games People Play
TTITLE12=Jody Miller - Stand By Your Man
TTITLE13=Carl Perkins - Honey Don't
TTITLE14=Claude King - Wolverton Mountain
TTITLE15=Jerry Reed - Love Don't Grow On Trees
TTITLE16=Sammi Smith - Sand Covered Angels
TTITLE17=David Rogers - A World Called You
TTITLE18=Johnny Duncan - I Take A Lot of Pride In What I Am
TTITLE19=Lester Flatt and Earl Scruggs - Foggy Mountain Breakdown
EXTD=YEAR: 1971
EXTT0=
EXTT1=
EXTT2=
EXTT3=
EXTT4=
EXTT5=
EXTT6=
EXTT7=
EXTT8=
EXTT9=
EXTT10=
EXTT11=
EXTT12=
EXTT13=
EXTT14=
EXTT15=
EXTT16=
EXTT17=
EXTT18=
EXTT19=
PLAYORDER=
